<svg xmlns="http://www.w3.org/2000/svg" version="1.1" xmlns:xlink="http://www.w3.org/1999/xlink" xmlns:svgjs="http://svgjs.com/svgjs" width="512" height="512" x="0" y="0" viewBox="0 0 497 497" style="enable-background:new 0 0 512 512" xml:space="preserve" class=""><g><path xmlns="http://www.w3.org/2000/svg" d="m458.002 97.603-51.675-93.721-115.154 373.118c104.107 0 190.584-85.178 190.16-189.284-.133-32.668-8.58-63.373-23.331-90.113z" fill="#f7be48" data-original="#f7be48"></path><path xmlns="http://www.w3.org/2000/svg" d="m451.333 187.716c-.08-32.668-5.148-63.373-14-90.114l-31.006-93.72c-1.319-2.393-3.835-3.878-6.567-3.879l-36.927-.003c-38.66 0-70 31.34-70 70v70.007l-63.984 153.303-188.758 188.758c-3.648 3.648-2.627 9.845 2.033 12.06 11.042 5.249 24.652 3.303 33.791-5.837l153.716-111.291h61.541c87.684 0 160.518-85.178 160.161-189.284z" fill="#f4de48" data-original="#f4de48" class=""></path><path xmlns="http://www.w3.org/2000/svg" d="m262.833 85c5.991 8.966 17.178 15 30 15l15-15-15-15c-12.822 0-24.009 6.034-30 15z" fill="#f99e49" data-original="#f99e49"></path><path xmlns="http://www.w3.org/2000/svg" d="m355.38 165.292c-15.82-15.45-35.95-23.75-56.5-25.08l.01 179c20.55-1.34 40.68-9.64 56.49-25.09 36.17-35.3 36.17-93.52 0-128.83z" fill="#f99e49" data-original="#f99e49"></path><path xmlns="http://www.w3.org/2000/svg" d="m244.181 277.955-90.248 90.258c-11.73 11.71-30.72 11.71-42.44-.01l90.26-132.676z" fill="#fffbbe" data-original="#fffbbe"></path><path xmlns="http://www.w3.org/2000/svg" d="m191.143 224.92 31.822 31.822-111.472 111.461c-11.71 11.72-30.71 11.72-42.42 0l-10.607-10.607z" fill="#fef77d" data-original="#fef77d"></path><path xmlns="http://www.w3.org/2000/svg" d="m298.88 140.212c30.15 4.75 53.65 43.01 53.65 89.5 0 46.48-23.49 84.74-53.64 89.5-25.05 1.65-50.97-6.85-69.99-25.87l-21.269-21.258c-11.716-11.71-30.705-11.708-42.419.003l-111.128 111.126c-9.249 9.249-23.027 11.199-34.185 5.85-4.653-2.231-5.68-8.413-2.031-12.061l210.202-210.11c19.34-19.34 45.4-28.35 70.81-26.68z" fill="#f7be48" data-original="#f7be48"></path><path xmlns="http://www.w3.org/2000/svg" d="m229.631 377-111.292 111.293c-11.609 11.609-30.431 11.609-42.04 0l-.19-.19 93.924-93.602c11.246-11.208 26.476-17.501 42.353-17.501z" fill="#fffbbe" data-original="#fffbbe"></path><circle xmlns="http://www.w3.org/2000/svg" cx="352.833" cy="70" fill="#2b4478" r="15" data-original="#2b4478"></circle></g></svg>
