<?xml version="1.0" standalone="no"?>
<!DOCTYPE svg PUBLIC "-//W3C//DTD SVG 20010904//EN"
 "http://www.w3.org/TR/2001/REC-SVG-20010904/DTD/svg10.dtd">
<svg version="1.0" xmlns="http://www.w3.org/2000/svg"
 width="512.000000pt" height="512.000000pt" viewBox="0 0 512.000000 512.000000"
 preserveAspectRatio="xMidYMid meet">
<metadata>
Created by potrace 1.14, written by Peter Selinger 2001-2017
</metadata>
<g transform="translate(0.000000,512.000000) scale(0.100000,-0.100000)"
fill="#000000" stroke="none">
<path d="M3590 5104 c-211 -44 -396 -186 -494 -379 -40 -80 -76 -207 -76 -271
0 -48 -3 -52 -55 -59 -46 -6 -68 -12 -123 -37 -44 -19 -132 -96 -132 -115 0
-6 23 -32 50 -57 55 -49 138 -86 210 -93 l46 -5 -2 -202 c-1 -110 -2 -203 -3
-206 0 -3 -18 -5 -38 -5 -35 1 -81 -5 -158 -19 -104 -19 -262 -92 -365 -169
-30 -22 -558 -543 -1173 -1158 -1041 -1041 -1117 -1119 -1115 -1148 5 -63 88
-103 196 -96 101 7 145 32 262 149 76 78 110 101 110 78 0 -16 94 -60 146 -69
80 -15 171 5 234 52 39 29 44 30 62 12 40 -40 149 -75 213 -70 48 4 99 20 142
44 18 10 -230 -245 -552 -566 -638 -638 -616 -611 -559 -668 31 -31 116 -51
186 -44 51 6 121 35 157 66 22 19 23 19 71 -14 90 -61 213 -70 308 -23 35 17
200 177 638 613 l591 591 354 0 c353 1 468 6 587 24 91 15 216 46 302 75 41
14 80 27 85 29 59 17 261 119 355 179 70 45 164 114 220 162 42 36 207 201
235 235 43 52 132 178 174 245 109 173 224 474 247 645 2 19 9 60 15 90 14 68
19 361 8 455 -14 118 -19 154 -24 167 -2 7 -6 24 -9 38 -14 80 -55 221 -68
238 -6 6 -8 12 -5 12 6 0 -33 97 -73 185 -13 28 -63 121 -112 207 -48 87 -88
160 -88 163 0 3 -10 22 -23 43 -13 20 -48 82 -77 137 -29 55 -56 105 -60 110
-4 6 -23 39 -43 75 -19 36 -51 94 -71 130 -20 36 -55 99 -77 142 -26 46 -51
80 -67 87 -36 17 -478 13 -562 -5z"/>
</g>
</svg>
